<?xml version="1.0" encoding="iso-8859-1"?>
<!-- Generator: Adobe Illustrator 16.0.0, SVG Export Plug-In . SVG Version: 6.00 Build 0)  -->
<!DOCTYPE svg PUBLIC "-//W3C//DTD SVG 1.1//EN" "http://www.w3.org/Graphics/SVG/1.1/DTD/svg11.dtd">
<svg version="1.1" id="Capa_1" xmlns="http://www.w3.org/2000/svg" xmlns:xlink="http://www.w3.org/1999/xlink" x="0px" y="0px"
	 width="439.875px" height="439.875px" viewBox="0 0 439.875 439.875" style="enable-background:new 0 0 439.875 439.875;"
	 xml:space="preserve">
<g>
	<g>
		<path d="M382.5,95.625H57.375C24.862,95.625,0,120.487,0,153v133.875c0,32.513,24.862,57.375,57.375,57.375H382.5
			c32.513,0,57.375-24.862,57.375-57.375V153C439.875,120.487,415.013,95.625,382.5,95.625z M210.375,286.875h-22.95l-38.25-57.375
			h-15.3v57.375H114.75V191.25V153h57.375c21.038,0,38.25,17.212,38.25,38.25c0,21.037-17.212,38.25-38.25,38.25L210.375,286.875z
			 M325.125,248.625c0,21.037-17.213,38.25-38.25,38.25H229.5v-61.2V153h57.375c21.037,0,38.25,17.212,38.25,38.25
			c0,11.475-5.737,21.037-13.388,28.688C319.388,227.588,325.125,237.15,325.125,248.625z"/>
		<path d="M172.125,172.125h-38.25v38.25h38.25c11.475,0,19.125-7.65,19.125-19.125S183.6,172.125,172.125,172.125z"/>
		<path d="M286.875,172.125h-38.25v38.25h38.25c11.475,0,19.125-7.65,19.125-19.125S298.35,172.125,286.875,172.125z"/>
		<path d="M286.875,229.5h-38.25v38.25h38.25c11.475,0,19.125-7.65,19.125-19.125S298.35,229.5,286.875,229.5z"/>
	</g>
</g>
<g>
</g>
<g>
</g>
<g>
</g>
<g>
</g>
<g>
</g>
<g>
</g>
<g>
</g>
<g>
</g>
<g>
</g>
<g>
</g>
<g>
</g>
<g>
</g>
<g>
</g>
<g>
</g>
<g>
</g>
</svg>
